<?xml version="1.0"?>
<svg xmlns="http://www.w3.org/2000/svg" height="512px" viewBox="0 -2 512 512" width="512px" class=""><g><path d="m459.753906 149.082031h-59.328125v33.90625h46.910157c11.542968 0 20.898437 9.359375 20.898437 20.898438v81.273437c0 11.542969-9.355469 20.898438-20.898437 20.898438h-46.910157v33.90625h59.328125c23.085938 0 41.796875-18.714844 41.796875-41.796875v-107.289063c0-23.082031-18.710937-41.796875-41.796875-41.796875zm0 0" fill="#0092e0" data-original="#0092E0" class="active-path" style="fill:#8E9B89" data-old_color="#0092e0"/><path d="m400.425781 376.082031v-275.476562h-253.792969v275.476562c0 44.484375 36.5 80.539063 81.519532 80.539063h90.753906c45.007812 0 81.519531-36.054688 81.519531-80.539063zm0 0" fill="#64c5f2" data-original="#64C5F2" class="" data-old_color="#64c5f2" style="fill:#E3E3BF"/><path d="m470.203125 456.621094h-347.601563c0 22.507812 18.320313 40.75 40.925782 40.75h265.75c22.605468 0 40.925781-18.242188 40.925781-40.75zm0 0" fill="#0092e0" data-original="#0092E0" class="active-path" style="fill:#8E9B89" data-old_color="#0092e0"/><path d="m280.148438 65.828125c-5.773438 0-10.449219-4.675781-10.449219-10.449219v-44.929687c0-5.769531 4.675781-10.449219 10.449219-10.449219 5.769531 0 10.449218 4.679688 10.449218 10.449219v44.929687c0 5.773438-4.679687 10.449219-10.449218 10.449219zm0 0" data-original="#000000" class="" style="fill:#000000" data-old_color="#000000"/><path d="m227.902344 79.59375c-5.769532 0-10.449219-4.679688-10.449219-10.449219v-58.695312c0-5.769531 4.679687-10.449219 10.449219-10.449219 5.769531 0 10.449218 4.679688 10.449218 10.449219v58.695312c0 5.769531-4.679687 10.449219-10.449218 10.449219zm0 0" data-original="#000000" class="" style="fill:#000000" data-old_color="#000000"/><path d="m175.65625 65.828125c-5.769531 0-10.449219-4.675781-10.449219-10.449219v-44.929687c0-5.769531 4.679688-10.449219 10.449219-10.449219 5.773438 0 10.449219 4.679688 10.449219 10.449219v44.929687c0 5.773438-4.675781 10.449219-10.449219 10.449219zm0 0" data-original="#000000" class="" style="fill:#000000" data-old_color="#000000"/><path d="m459.753906 138.636719h-48.878906v-38.03125c0-5.773438-4.679688-10.449219-10.449219-10.449219h-345.046875c-5.769531 0-10.449218 4.675781-10.449218 10.449219v275.476562c0 28.167969 13.007812 53.386719 33.386718 70.089844h-67.867187c-5.769531 0-10.449219 4.675781-10.449219 10.449219 0 28.230468 23.046875 51.199218 51.375 51.199218h377.90625c28.324219 0 51.371094-22.96875 51.371094-51.199218 0-5.773438-4.675782-10.449219-10.445313-10.449219h-92.71875c20.382813-16.703125 33.386719-41.921875 33.386719-70.089844v-25.667969h48.878906c28.808594 0 52.246094-23.4375 52.246094-52.246093v-107.289063c0-28.808594-23.4375-52.242187-52.246094-52.242187zm-48.878906 54.800781h36.460938c5.761718 0 10.449218 4.6875 10.449218 10.449219v81.273437c0 5.761719-4.6875 10.449219-10.449218 10.449219h-36.460938zm47.011719 273.632812c-4.289063 11.574219-15.496094 19.851563-28.605469 19.851563h-377.90625c-13.113281 0-24.320312-8.277344-28.609375-19.851563zm-67.910157-90.988281c0 38.648438-31.878906 70.089844-71.070312 70.089844h-182.007812c-39.1875 0-71.070313-31.441406-71.070313-70.089844v-265.027343h324.148437v45.054687h-68.476562c-5.773438 0-10.449219 4.679687-10.449219 10.449219 0 5.773437 4.675781 10.449218 10.449219 10.449218h68.476562v20.898438h-99.824218c-5.773438 0-10.449219 4.679688-10.449219 10.449219s4.675781 10.449219 10.449219 10.449219h99.824218zm101.125-77.914062c0 17.285156-14.0625 31.347656-31.347656 31.347656h-48.878906v-13.007813h36.460938c17.285156 0 31.347656-14.0625 31.347656-31.347656v-81.273437c0-17.285157-14.0625-31.347657-31.347656-31.347657h-36.460938v-13.007812h48.878906c17.285156 0 31.347656 14.0625 31.347656 31.347656zm0 0" data-original="#000000" class="" style="fill:#000000" data-old_color="#000000"/><path d="m280.148438 65.828125c5.769531 0 10.449218-4.675781 10.449218-10.449219v-44.929687c0-5.769531-4.679687-10.449219-10.449218-10.449219-5.773438 0-10.449219 4.679688-10.449219 10.449219v44.929687c0 5.773438 4.675781 10.449219 10.449219 10.449219zm0 0" data-original="#000000" class="" style="fill:#000000" data-old_color="#000000"/><path d="m227.902344 79.59375c5.769531 0 10.449218-4.679688 10.449218-10.449219v-58.695312c0-5.769531-4.679687-10.449219-10.449218-10.449219-5.769532 0-10.449219 4.679688-10.449219 10.449219v58.695312c0 5.769531 4.679687 10.449219 10.449219 10.449219zm0 0" data-original="#000000" class="" style="fill:#000000" data-old_color="#000000"/><path d="m175.65625 65.828125c5.773438 0 10.449219-4.675781 10.449219-10.449219v-44.929687c0-5.769531-4.675781-10.449219-10.449219-10.449219-5.769531 0-10.449219 4.679688-10.449219 10.449219v44.929687c0 5.773438 4.679688 10.449219 10.449219 10.449219zm0 0" data-original="#000000" class="" style="fill:#000000" data-old_color="#000000"/><path d="m287.558594 177.011719h.136718c5.769532 0 10.449219-4.679688 10.449219-10.449219 0-5.773438-4.679687-10.449219-10.449219-10.449219h-.136718c-5.773438 0-10.449219 4.675781-10.449219 10.449219 0 5.769531 4.675781 10.449219 10.449219 10.449219zm0 0" data-original="#000000" class="" style="fill:#000000" data-old_color="#000000"/><path d="m256.347656 197.90625h-.136718c-5.769532 0-10.449219 4.679688-10.449219 10.449219 0 5.773437 4.679687 10.449219 10.449219 10.449219h.136718c5.769532 0 10.449219-4.675782 10.449219-10.449219 0-5.769531-4.679687-10.449219-10.449219-10.449219zm0 0" data-original="#000000" class="" style="fill:#000000" data-old_color="#000000"/></g> </svg>
